# xmcd
#
# Track frame offsets:
#	150
#	17020
#	35545
#	51407
#	68677
#	84355
#	102210
#	120947
#	135777
#	155297
#	174097
#	189380
#	208640
#	229130
#	247210
#	264067
#
# Disc length: 3753 seconds
#
# Revision: 0
# Processed by: cddbd v1.4PL0 Copyright (c) Steve Scherf et al.
# Submitted via: EasyCDDAExtractor 4.6.9.1
#
DISCID=c00ea710
DTITLE=Wanessa Camargo
DYEAR=2000
DGENRE=Pop
TTITLE0=O Amor não deixa (Love Won't Let Me)
TTITLE1=Deixa pra lá
TTITLE2=Eu Sei (Stay)
TTITLE3=Apaixonada por Você (Undernath)
TTITLE4=Girassóis
TTITLE5=A mulher em Mim
TTITLE6=Fuga
TTITLE7=A Força da Paixão
TTITLE8=Educação Sentimental II
TTITLE9=Eu Posso te Sentir (Breathe)
TTITLE10=Eu Nasci pra amar você (Born to Give my love to you)
TTITLE11=Só ser amar você
TTITLE12=Aentes e Depois de Você
TTITLE13=Amanhecer em Mim (Amaneciendo en Ti)
TTITLE14=Love won't Let Me
TTITLE15=Apaixonada por Você (Versão)
EXTD=
EXTT0=
EXTT1=
EXTT2=
EXTT3=
EXTT4=
EXTT5=
EXTT6=
EXTT7=
EXTT8=
EXTT9=
EXTT10=
EXTT11=
EXTT12=
EXTT13=
EXTT14=
EXTT15=
PLAYORDER=
